<mxfile host="app.diagrams.net" modified="2023-04-22T22:19:32.974Z" agent="Mozilla/5.0 (Windows NT 10.0; Win64; x64) AppleWebKit/537.36 (KHTML, like Gecko) Chrome/112.0.0.0 Safari/537.36" etag="fV_5wsP97tgui0jbxzk3" version="21.1.8" type="device">
  <diagram name="Page-1" id="fv12YjaiszCfcsyNIJsx">
    <mxGraphModel dx="1290" dy="549" grid="1" gridSize="10" guides="1" tooltips="1" connect="1" arrows="1" fold="1" page="1" pageScale="1" pageWidth="827" pageHeight="1169" math="0" shadow="0">
      <root>
        <mxCell id="0" />
        <mxCell id="1" parent="0" />
        <mxCell id="HjU_WbIHNvPU7J4V8DaT-1" value="Entity" style="whiteSpace=wrap;html=1;align=center;" vertex="1" parent="1">
          <mxGeometry x="630" y="320" width="100" height="40" as="geometry" />
        </mxCell>
        <mxCell id="HjU_WbIHNvPU7J4V8DaT-2" value="match" style="whiteSpace=wrap;html=1;align=center;" vertex="1" parent="1">
          <mxGeometry x="400" y="160" width="100" height="40" as="geometry" />
        </mxCell>
        <mxCell id="HjU_WbIHNvPU7J4V8DaT-3" value="team" style="whiteSpace=wrap;html=1;align=center;" vertex="1" parent="1">
          <mxGeometry x="190" y="160" width="100" height="40" as="geometry" />
        </mxCell>
      </root>
    </mxGraphModel>
  </diagram>
</mxfile>
